<?xml version="1.0" encoding="UTF-8" standalone="no"?>
<!-- Created with Inkscape (http://www.inkscape.org/) -->

<svg
   xmlns:dc="http://purl.org/dc/elements/1.1/"
   xmlns:cc="http://creativecommons.org/ns#"
   xmlns:rdf="http://www.w3.org/1999/02/22-rdf-syntax-ns#"
   xmlns:svg="http://www.w3.org/2000/svg"
   xmlns="http://www.w3.org/2000/svg"
   xmlns:sodipodi="http://sodipodi.sourceforge.net/DTD/sodipodi-0.dtd"
   xmlns:inkscape="http://www.inkscape.org/namespaces/inkscape"
   id="svg3396"
   version="1.1"
   inkscape:version="0.92.2 5c3e80d, 2017-08-06"
   xml:space="preserve"
   width="337.5"
   height="202.5"
   viewBox="0 0 337.5 202.5"
   sodipodi:docname="bc-old.svg"><metadata
     id="metadata3402"><rdf:RDF><cc:Work
         rdf:about=""><dc:format>image/svg+xml</dc:format><dc:type
           rdf:resource="http://purl.org/dc/dcmitype/StillImage" /><dc:title /></cc:Work></rdf:RDF></metadata><defs
     id="defs3400"><clipPath
       clipPathUnits="userSpaceOnUse"
       id="clipPath3410"><path
         d="M 0,162 270,162 270,0 0,0 0,162 Z"
         id="path3412"
         inkscape:connector-curvature="0" /></clipPath><clipPath
       clipPathUnits="userSpaceOnUse"
       id="clipPath3430"><path
         d="M 0,162 270,162 270,0 0,0 0,162 Z"
         id="path3432"
         inkscape:connector-curvature="0" /></clipPath></defs><sodipodi:namedview
     pagecolor="#ffffff"
     bordercolor="#666666"
     borderopacity="1"
     objecttolerance="10"
     gridtolerance="10"
     guidetolerance="10"
     inkscape:pageopacity="0"
     inkscape:pageshadow="2"
     inkscape:window-width="1440"
     inkscape:window-height="837"
     id="namedview3398"
     showgrid="true"
     inkscape:zoom="1.9182157"
     inkscape:cx="76.83025"
     inkscape:cy="100.95358"
     inkscape:window-x="0"
     inkscape:window-y="0"
     inkscape:window-maximized="0"
     inkscape:current-layer="g3404"><inkscape:grid
       type="xygrid"
       id="grid21"
       spacingx="4"
       spacingy="4" /></sodipodi:namedview><g
     id="g3404"
     inkscape:groupmode="layer"
     inkscape:label="bc-front"
     transform="matrix(1.25,0,0,-1.25,0,202.5)"><g
       id="g3426"
       transform="translate(13.1311,20.5)"><g
         id="g3428"
         clip-path="url(#clipPath3430)"><g
           id="g3434"
           transform="translate(135,52.25)"><path
             d="m 0,0 c -4.004,0 -7.25,3.246 -7.25,7.25 0,4.004 3.246,7.25 7.25,7.25 4.004,0 7.25,-3.246 7.25,-7.25 C 7.25,3.246 4.004,0 0,0 m 0,28.75 c -11.874,0 -21.5,-9.626 -21.5,-21.5 0,-11.874 9.626,-21.5 21.5,-21.5 11.874,0 21.5,9.626 21.5,21.5 0,11.874 -9.626,21.5 -21.5,21.5"
             style="fill:#231f20;fill-opacity:1;fill-rule:nonzero;stroke:none"
             id="path3436"
             inkscape:connector-curvature="0" /></g><g
           id="g3438"
           transform="translate(164,81.0519)"><path
             d="m 0,0 v -43.104 c 4.479,6.017 7.131,13.475 7.131,21.552 C 7.131,-13.474 4.479,-6.017 0,0"
             style="fill:#231f20;fill-opacity:1;fill-rule:nonzero;stroke:none"
             id="path3440"
             inkscape:connector-curvature="0" /></g><g
           id="g3442"
           transform="translate(98.8689,59.5)"><path
             d="m 0,0 c 0,-19.955 16.176,-36.131 36.131,-36.131 8.055,0 15.492,2.638 21.5,7.094 v 9.577 C 52.325,-25.319 44.658,-29 36.131,-29 c -16.016,0 -29,12.984 -29,29 0,16.016 12.984,29 29,29 8.527,0 16.194,-3.681 21.5,-9.54 v 9.577 c -6.008,4.456 -13.445,7.094 -21.5,7.094 C 16.176,36.131 0,19.955 0,0"
             style="fill:#231f20;fill-opacity:1;fill-rule:nonzero;stroke:none"
             id="path3444"
             inkscape:connector-curvature="0" /></g></g></g></g></svg>