<?xml version="1.0" ?><svg height="32px" version="1.1" viewBox="0 0 32 32" width="32px" xmlns="http://www.w3.org/2000/svg" xmlns:sketch="http://www.bohemiancoding.com/sketch/ns" xmlns:xlink="http://www.w3.org/1999/xlink"><title/><desc/><defs><path d="M27.52,27.525 L6.806,27.525 L6.198,27.525 L3.76,27.525 C3.64,27.525 3.535,27.481 3.441,27.421 C2.569,27.152 1.933,26.353 1.933,25.392 C1.933,25.323 1.947,25.256 1.954,25.188 C1.947,25.154 1.933,25.125 1.933,25.088 L1.933,15.341 C1.933,15.004 2.206,14.731 2.542,14.731 L4.979,14.731 L4.979,6.202 C4.979,5.53 5.524,4.985 6.198,4.985 L27.52,4.985 C28.192,4.985 28.739,5.53 28.739,6.202 L28.739,26.307 C28.739,26.98 28.192,27.525 27.52,27.525 L27.52,27.525 L27.52,27.525 Z M4.979,23.474 L4.979,22.348 L4.979,15.951 L3.152,15.951 L3.152,22.348 L3.152,23.474 L3.152,25.393 C3.152,25.898 3.56,26.308 4.066,26.308 C4.57,26.308 4.98,25.898 4.98,25.393 L4.98,23.474 L4.979,23.474 L4.979,23.474 Z M27.52,6.203 L6.198,6.203 L6.198,26.308 L27.52,26.308 L27.52,6.203 L27.52,6.203 Z M9.244,9.859 L14.727,9.859 C15.063,9.859 15.335,10.132 15.335,10.467 C15.335,10.804 15.063,11.077 14.727,11.077 L9.244,11.077 C8.908,11.077 8.634,10.804 8.634,10.467 C8.634,10.132 8.908,9.859 9.244,9.859 L9.244,9.859 L9.244,9.859 Z M9.244,12.905 L14.727,12.905 C15.063,12.905 15.335,13.177 15.335,13.515 C15.335,13.851 15.063,14.124 14.727,14.124 L9.244,14.124 C8.908,14.124 8.634,13.851 8.634,13.515 C8.634,13.177 8.908,12.905 9.244,12.905 L9.244,12.905 L9.244,12.905 Z M9.244,15.951 L24.474,15.951 C24.81,15.951 25.083,16.223 25.083,16.561 C25.083,16.897 24.81,17.169 24.474,17.169 L9.244,17.169 C8.908,17.169 8.634,16.897 8.634,16.561 C8.634,16.223 8.908,15.951 9.244,15.951 L9.244,15.951 L9.244,15.951 Z M9.244,18.997 L24.474,18.997 C24.81,18.997 25.083,19.269 25.083,19.607 C25.083,19.943 24.81,20.216 24.474,20.216 L9.244,20.216 C8.908,20.216 8.634,19.943 8.634,19.607 C8.634,19.269 8.908,18.997 9.244,18.997 L9.244,18.997 L9.244,18.997 Z M9.244,22.044 L24.474,22.044 C24.81,22.044 25.083,22.316 25.083,22.652 C25.083,22.988 24.81,23.26 24.474,23.26 L9.244,23.26 C8.908,23.26 8.634,22.988 8.634,22.652 C8.634,22.316 8.908,22.044 9.244,22.044 L9.244,22.044 L9.244,22.044 Z M23.864,14.124 L18.381,14.124 C17.709,14.124 17.162,13.579 17.162,12.905 L17.162,11.078 C17.162,10.405 17.709,9.859 18.381,9.859 L23.864,9.859 C24.537,9.859 25.083,10.404 25.083,11.078 L25.083,12.905 C25.083,13.578 24.538,14.124 23.864,14.124 L23.864,14.124 L23.864,14.124 Z M23.864,11.078 L18.381,11.078 L18.381,12.905 L23.864,12.905 L23.864,11.078 L23.864,11.078 Z" id="path-1"/></defs><g fill="none" fill-rule="evenodd" id="Page-1" stroke="none" stroke-width="1"><mask fill="white" id="mask-2"><use xlink:href="#path-1"/></mask><use fill="#A0A0A0" id="news" xlink:href="#path-1"/></g></svg>