<?xml version="1.0" encoding="UTF-8" standalone="no"?>
<!-- Created with Inkscape (http://www.inkscape.org/) -->

<svg
   xmlns:dc="http://purl.org/dc/elements/1.1/"
   xmlns:cc="http://creativecommons.org/ns#"
   xmlns:rdf="http://www.w3.org/1999/02/22-rdf-syntax-ns#"
   xmlns:svg="http://www.w3.org/2000/svg"
   xmlns="http://www.w3.org/2000/svg"
   xmlns:sodipodi="http://sodipodi.sourceforge.net/DTD/sodipodi-0.dtd"
   xmlns:inkscape="http://www.inkscape.org/namespaces/inkscape"
   id="svg3396"
   version="1.1"
   inkscape:version="0.92.2 5c3e80d, 2017-08-06"
   xml:space="preserve"
   width="60"
   height="60"
   viewBox="0 0 60 60"
   sodipodi:docname="on_favicon.svg"><metadata
     id="metadata3402"><rdf:RDF><cc:Work
         rdf:about=""><dc:format>image/svg+xml</dc:format><dc:type
           rdf:resource="http://purl.org/dc/dcmitype/StillImage" /><dc:title></dc:title></cc:Work></rdf:RDF></metadata><defs
     id="defs3400" /><sodipodi:namedview
     pagecolor="#ffffff"
     bordercolor="#666666"
     borderopacity="1"
     objecttolerance="1"
     gridtolerance="1"
     guidetolerance="1"
     inkscape:pageopacity="0"
     inkscape:pageshadow="2"
     inkscape:window-width="1440"
     inkscape:window-height="837"
     id="namedview3398"
     showgrid="true"
     inkscape:zoom="2.7127667"
     inkscape:cx="-43.129201"
     inkscape:cy="70.89535"
     inkscape:window-x="0"
     inkscape:window-y="0"
     inkscape:window-maximized="0"
     inkscape:current-layer="g3404"
     fit-margin-top="0"
     fit-margin-left="0"
     fit-margin-right="0"
     fit-margin-bottom="0"><inkscape:grid
       type="xygrid"
       id="grid21"
       spacingx="4"
       spacingy="4"
       originx="-140"
       originy="-40" /></sodipodi:namedview><g
     id="g3404"
     inkscape:groupmode="layer"
     inkscape:label="bc-front"
     transform="matrix(1.25,0,0,-1.25,-140,100)"><path
       style="stroke-width:1"
       d="m 170,102.5 a 30,30 0 0 0 -6,0.63867 v 58.75391 a 30,30 0 0 0 6,0.60742 30,30 0 0 0 6.94141,-0.84766 V 103.34961 A 30,30 0 0 0 170,102.5 Z m -12.21094,2.63867 A 30,30 0 0 0 140,132.5 a 30,30 0 0 0 17.78906,27.375 z m 25.56446,0.51172 v 53.67383 A 30,30 0 0 0 200,132.5 30,30 0 0 0 183.35352,105.65039 Z"
       transform="matrix(0.8,0,0,-0.8,0,162)"
       id="path16"
       inkscape:connector-curvature="0"
       inkscape:export-filename="/Users/chrisaaker/root/repo_fave/client-react/dist/_images/favicon.png"
       inkscape:export-xdpi="102.4"
       inkscape:export-ydpi="102.4" /></g></svg>