<?xml version="1.0" encoding="UTF-8" standalone="no"?>
<!-- Created with Inkscape (http://www.inkscape.org/) -->

<svg
   xmlns:dc="http://purl.org/dc/elements/1.1/"
   xmlns:cc="http://creativecommons.org/ns#"
   xmlns:rdf="http://www.w3.org/1999/02/22-rdf-syntax-ns#"
   xmlns:svg="http://www.w3.org/2000/svg"
   xmlns="http://www.w3.org/2000/svg"
   xmlns:sodipodi="http://sodipodi.sourceforge.net/DTD/sodipodi-0.dtd"
   xmlns:inkscape="http://www.inkscape.org/namespaces/inkscape"
   id="svg3396"
   version="1.1"
   inkscape:version="0.92.2 5c3e80d, 2017-08-06"
   xml:space="preserve"
   width="337.5"
   height="202.5"
   viewBox="0 0 337.5 202.5"
   sodipodi:docname="bc.svg"><metadata
     id="metadata3402"><rdf:RDF><cc:Work
         rdf:about=""><dc:format>image/svg+xml</dc:format><dc:type
           rdf:resource="http://purl.org/dc/dcmitype/StillImage" /><dc:title></dc:title></cc:Work></rdf:RDF></metadata><defs
     id="defs3400"><clipPath
       clipPathUnits="userSpaceOnUse"
       id="clipPath3410"><path
         d="M 0,162 270,162 270,0 0,0 0,162 Z"
         id="path3412"
         inkscape:connector-curvature="0" /></clipPath><clipPath
       clipPathUnits="userSpaceOnUse"
       id="clipPath3430"><path
         d="M 0,162 270,162 270,0 0,0 0,162 Z"
         id="path3432"
         inkscape:connector-curvature="0" /></clipPath></defs><sodipodi:namedview
     pagecolor="#ffffff"
     bordercolor="#666666"
     borderopacity="1"
     objecttolerance="1"
     gridtolerance="1"
     guidetolerance="1"
     inkscape:pageopacity="0"
     inkscape:pageshadow="2"
     inkscape:window-width="1440"
     inkscape:window-height="837"
     id="namedview3398"
     showgrid="true"
     inkscape:zoom="2.7127667"
     inkscape:cx="160.09039"
     inkscape:cy="110.89535"
     inkscape:window-x="0"
     inkscape:window-y="0"
     inkscape:window-maximized="0"
     inkscape:current-layer="g3404"><inkscape:grid
       type="xygrid"
       id="grid21"
       spacingx="4"
       spacingy="4" /></sodipodi:namedview><g
     id="g3404"
     inkscape:groupmode="layer"
     inkscape:label="bc-front"
     transform="matrix(1.25,0,0,-1.25,0,202.5)"><text
       transform="scale(1,-1)"
       style="font-variant:normal;font-weight:500;font-stretch:normal;font-size:42.66666794px;line-height:0%;font-family:Futura;-inkscape-font-specification:Futura-Medium;writing-mode:lr-tb;fill:#231f20;fill-opacity:1;fill-rule:nonzero;stroke:none"
       id="text3422"
       x="35.421097"
       y="-113.44373"><tspan
         sodipodi:role="line"
         id="tspan3424"
         style="font-size:42.66666794px;line-height:1.25"
         x="35.421097"
         y="-113.44373"><tspan
   style="font-size:42.66666794px;line-height:1"
   id="tspan3837">livelong</tspan>.ai</tspan></text>
<path
       style="stroke-width:1"
       d="M 170 102.5 A 30 30 0 0 0 164 103.13867 L 164 161.89258 A 30 30 0 0 0 170 162.5 A 30 30 0 0 0 176.94141 161.65234 L 176.94141 103.34961 A 30 30 0 0 0 170 102.5 z M 157.78906 105.13867 A 30 30 0 0 0 140 132.5 A 30 30 0 0 0 157.78906 159.875 L 157.78906 105.13867 z M 183.35352 105.65039 L 183.35352 159.32422 A 30 30 0 0 0 200 132.5 A 30 30 0 0 0 183.35352 105.65039 z "
       transform="matrix(0.8,0,0,-0.8,0,162)"
       id="path16" /></g></svg>