<?xml version="1.0" encoding="UTF-8" standalone="no"?>
<!-- Generator: Adobe Illustrator 16.0.0, SVG Export Plug-In . SVG Version: 6.00 Build 0)  -->

<svg
   xmlns:dc="http://purl.org/dc/elements/1.1/"
   xmlns:cc="http://creativecommons.org/ns#"
   xmlns:rdf="http://www.w3.org/1999/02/22-rdf-syntax-ns#"
   xmlns:svg="http://www.w3.org/2000/svg"
   xmlns="http://www.w3.org/2000/svg"
   xmlns:sodipodi="http://sodipodi.sourceforge.net/DTD/sodipodi-0.dtd"
   xmlns:inkscape="http://www.inkscape.org/namespaces/inkscape"
   version="1.1"
   id="Capa_1"
   x="0px"
   y="0px"
   width="438.542px"
   height="438.542px"
   viewBox="0 0 438.542 438.542"
   style="enable-background:new 0 0 438.542 438.542;"
   xml:space="preserve"
   sodipodi:docname="signon.svg"
   inkscape:version="0.92.2 5c3e80d, 2017-08-06"><metadata
     id="metadata45"><rdf:RDF><cc:Work
         rdf:about=""><dc:format>image/svg+xml</dc:format><dc:type
           rdf:resource="http://purl.org/dc/dcmitype/StillImage" /><dc:title></dc:title></cc:Work></rdf:RDF></metadata><defs
     id="defs43" /><sodipodi:namedview
     pagecolor="#ffffff"
     bordercolor="#666666"
     borderopacity="1"
     objecttolerance="10"
     gridtolerance="10"
     guidetolerance="10"
     inkscape:pageopacity="0"
     inkscape:pageshadow="2"
     inkscape:window-width="743"
     inkscape:window-height="480"
     id="namedview41"
     showgrid="false"
     inkscape:zoom="0.53814687"
     inkscape:cx="219.271"
     inkscape:cy="219.271"
     inkscape:window-x="0"
     inkscape:window-y="0"
     inkscape:window-maximized="0"
     inkscape:current-layer="Capa_1" /><g
     id="g8"><g
       id="g6"><path
         d="M414.41,60.676c-16.084-16.083-35.446-24.125-58.102-24.125h-91.357c-2.478,0-4.429,0.614-5.853,1.855    c-1.431,1.237-2.382,3.093-2.854,5.568c-0.479,2.474-0.76,4.709-0.853,6.707c-0.096,1.997-0.051,4.521,0.144,7.565    c0.186,3.046,0.281,4.949,0.281,5.713c0.571,1.524,0.767,2.81,0.571,3.855c-0.191,1.043,0.476,1.903,1.998,2.568    c1.52,0.666,2.279,1.191,2.279,1.569c0,0.378,1.096,0.662,3.285,0.855c2.19,0.192,3.289,0.284,3.289,0.284h3.713h3.142h82.228    c12.56,0,23.312,4.471,32.258,13.422c8.952,8.945,13.422,19.696,13.422,32.261V319.77c0,12.563-4.47,23.312-13.422,32.258    c-8.945,8.948-19.698,13.421-32.258,13.421h-91.357c-2.478,0-4.436,0.62-5.853,1.855c-1.43,1.242-2.382,3.094-2.857,5.564    c-0.476,2.478-0.763,4.716-0.855,6.714c-0.092,1.995-0.051,4.518,0.144,7.563c0.195,3.046,0.288,4.948,0.288,5.708    c0,2.478,0.896,4.613,2.707,6.427c1.81,1.807,3.949,2.71,6.427,2.71h91.357c22.648,0,42.018-8.042,58.095-24.133    c16.084-16.077,24.126-35.446,24.126-58.095V118.769C438.533,96.118,430.491,76.754,414.41,60.676z"
         id="path2" /><path
         d="M338.047,219.27c0-4.948-1.813-9.233-5.427-12.85L177.302,51.101c-3.616-3.612-7.895-5.424-12.847-5.424    c-4.952,0-9.233,1.812-12.85,5.424c-3.615,3.617-5.424,7.904-5.424,12.85v82.226H18.274c-4.952,0-9.235,1.812-12.851,5.424    C1.807,155.219,0,159.503,0,164.452v109.635c0,4.949,1.807,9.233,5.424,12.848c3.619,3.61,7.902,5.427,12.851,5.427h127.906    v82.225c0,4.945,1.809,9.233,5.424,12.847c3.621,3.617,7.902,5.428,12.85,5.428c4.949,0,9.231-1.811,12.847-5.428l155.318-155.312    C336.234,228.501,338.047,224.216,338.047,219.27z"
         id="path4" /></g></g><g
     id="g10" /><g
     id="g12" /><g
     id="g14" /><g
     id="g16" /><g
     id="g18" /><g
     id="g20" /><g
     id="g22" /><g
     id="g24" /><g
     id="g26" /><g
     id="g28" /><g
     id="g30" /><g
     id="g32" /><g
     id="g34" /><g
     id="g36" /><g
     id="g38" /></svg>